# xmcd
# 
# Track frame offsets:
#     183
#     19528
#     33255
#     48948
#     61850
#     76883
#     87390
#     97663
#     114355
#     130750
#     142973
#     156043
#     177865
#     196420
#     207015
#     226100
# 
# Disc length: 3156
# 
# Revision: 2
# Processed by: cddbd v1.5.2PL0 Copyright (c) Steve Scherf et al.
# Submitted via: fre:ac v1.0.31
# 
DISCID=b50c5210
DTITLE=Various Artist - 16 Succès Volume 4
DYEAR=0
DGENRE=Pop
TTITLE0=Yves Duteuil - Prendre un enfant
TTITLE1=Salvatore Adamo - Une mèche de cheveux
TTITLE2=Julien Clerc - Ce n'est rien
TTITLE3=Richard Anthony - Sunny
TTITLE4=Mike Brant - Qui saura
TTITLE5=Anne Vanderlove - Ballade en novembre
TTITLE6=Sacha Distel - La petite puce
TTITLE7=Il était une fois - J'ai encore rêvé d'elle
TTITLE8=Gilbert Bécaud - Et maintenant
TTITLE9=Régine - La grande zoa
TTITLE10=Serge Lama - Mon doux agneau, ma tendre chatte
TTITLE11=Richard Anthony - Aranjuez mon amour
TTITLE12=Françoise Hardy - J'écoute de la musique saoule
TTITLE13=Camillo - Sag warum
TTITLE14=Wallace Collection - Daydream
TTITLE15=Alice Dona - Mon train de banlieue
EXTD=
EXTT0=
EXTT1=
EXTT2=
EXTT3=
EXTT4=
EXTT5=
EXTT6=
EXTT7=
EXTT8=
EXTT9=
EXTT10=
EXTT11=
EXTT12=
EXTT13=
EXTT14=
EXTT15=
PLAYORDER=
